# This file uses centimeters as units for non-parametric coordinates.

mtllib Plane01.mtl
g default
v -60.000000 -0.000000 582.765340
v 60.000000 -0.000000 582.765340
v -60.000000 0.000000 462.765340
v 60.000000 0.000000 462.765340
vt 0.001740 0.001740
vt 0.497498 0.001740
vt 0.001740 0.497498
vt 0.497498 0.497498
vn 0.000000 1.000000 0.000000
vn 0.000000 1.000000 0.000000
vn 0.000000 1.000000 0.000000
vn 0.000000 1.000000 0.000000
s off
g pPlane4
usemtl initialShadingGroup
f 1/1/1 2/2/2 4/4/3 3/3/4
