# This file uses centimeters as units for non-parametric coordinates.

mtllib Plane02.mtl
g default
v -60.000000 -0.000000 454.973403
v 60.000000 -0.000000 454.973403
v -60.000000 0.000000 334.973403
v 60.000000 0.000000 334.973403
vt 0.502048 0.001740
vt 0.997805 0.001740
vt 0.502048 0.497498
vt 0.997805 0.497498
vn 0.000000 1.000000 0.000000
vn 0.000000 1.000000 0.000000
vn 0.000000 1.000000 0.000000
vn 0.000000 1.000000 0.000000
s off
g pPlane5
usemtl initialShadingGroup
f 1/1/1 2/2/2 4/4/3 3/3/4
